# xmcd
#
# Track frame offsets:
#	150
#	15606
#	32049
#	50514
#	71815
#	91596
#	106006
#	128936
#	144669
#	160948
# Disc length: 2368 seconds
# Revision: 1
# Processed by: cddbd v1.5.2PL0 Copyright (c) Steve Scherf et al.
#
# Submitted via: libkcddb 0.31
#
DISCID=7f093e0a
DTITLE=Big Dez - WET PAINT
DYEAR=2013
DGENRE=Blues
TTITLE0=We CAN fly
TTITLE1=No REASON To change
TTITLE2=Walking on the boardwalk
TTITLE3=TEAR it up
TTITLE4=NIBBLING
TTITLE5=EVERY SUNDAY
TTITLE6=Sirocco
TTITLE7=you can feel it
TTITLE8=NO WAY BACK
TTITLE9=Baile Vermut
EXTD=
EXTT0=
EXTT1=
EXTT2=
EXTT3=
EXTT4=
EXTT5=
EXTT6=
EXTT7=
EXTT8=
EXTT9=
PLAYORDER=
